<svg width="18" height="16" viewBox="0 0 18 16" fill="none" xmlns="http://www.w3.org/2000/svg">
<path d="M1.99902 15.875C1.51777 15.875 1.10594 15.7038 0.763523 15.3614C0.421107 15.019 0.249607 14.6068 0.249023 14.125V1.875C0.249023 1.39375 0.420523 0.981917 0.763523 0.6395C1.10652 0.297083 1.51836 0.125583 1.99902 0.125H15.999C16.4803 0.125 16.8924 0.2965 17.2354 0.6395C17.5784 0.9825 17.7496 1.39433 17.749 1.875V14.125C17.749 14.6062 17.5778 15.0184 17.2354 15.3614C16.893 15.7044 16.4809 15.8756 15.999 15.875H1.99902ZM6.37402 12.375C6.62194 12.375 6.8299 12.291 6.9979 12.123C7.1659 11.955 7.24961 11.7473 7.24902 11.5C7.24844 11.2527 7.16444 11.045 6.99702 10.877C6.82961 10.709 6.62194 10.625 6.37402 10.625H3.74902C3.50111 10.625 3.29344 10.709 3.12602 10.877C2.95861 11.045 2.87461 11.2527 2.87402 11.5C2.87344 11.7473 2.95744 11.9553 3.12602 12.1239C3.29461 12.2925 3.50227 12.3762 3.74902 12.375H6.37402ZM11.2303 8.15312L10.5959 7.51875C10.4209 7.34375 10.2167 7.26004 9.9834 7.26762C9.75006 7.27521 9.5459 7.36621 9.3709 7.54063C9.21048 7.71563 9.12648 7.91979 9.1189 8.15312C9.11131 8.38646 9.19532 8.59062 9.3709 8.76562L10.6178 10.0125C10.7928 10.1875 10.9969 10.275 11.2303 10.275C11.4636 10.275 11.6678 10.1875 11.8428 10.0125L14.949 6.90625C15.124 6.73125 15.2115 6.52708 15.2115 6.29375C15.2115 6.06042 15.124 5.85625 14.949 5.68125C14.774 5.50625 14.5664 5.41875 14.326 5.41875C14.0857 5.41875 13.8777 5.50625 13.7021 5.68125L11.2303 8.15312ZM6.37402 8.875C6.62194 8.875 6.8299 8.791 6.9979 8.623C7.1659 8.455 7.24961 8.24733 7.24902 8C7.24844 7.75267 7.16444 7.545 6.99702 7.377C6.82961 7.209 6.62194 7.125 6.37402 7.125H3.74902C3.50111 7.125 3.29344 7.209 3.12602 7.377C2.95861 7.545 2.87461 7.75267 2.87402 8C2.87344 8.24733 2.95744 8.45529 3.12602 8.62388C3.29461 8.79246 3.50227 8.87617 3.74902 8.875H6.37402ZM6.37402 5.375C6.62194 5.375 6.8299 5.291 6.9979 5.123C7.1659 4.955 7.24961 4.74733 7.24902 4.5C7.24844 4.25267 7.16444 4.045 6.99702 3.877C6.82961 3.709 6.62194 3.625 6.37402 3.625H3.74902C3.50111 3.625 3.29344 3.709 3.12602 3.877C2.95861 4.045 2.87461 4.25267 2.87402 4.5C2.87344 4.74733 2.95744 4.95529 3.12602 5.12388C3.29461 5.29246 3.50227 5.37617 3.74902 5.375H6.37402Z" fill="#EE3238"/>
</svg>
