<svg width="18" height="18" viewBox="0 0 18 18" fill="none" xmlns="http://www.w3.org/2000/svg">
<path fill-rule="evenodd" clip-rule="evenodd" d="M4.70325 1.584C4.09575 1.6635 3.77475 1.80975 3.54525 2.034C3.3165 2.259 3.16725 2.574 3.0855 3.16875C3.0015 3.7815 3 4.593 3 5.75625V12.1838C3.29698 11.981 3.62649 11.8306 3.97425 11.739C4.37025 11.6347 4.83225 11.6347 5.5095 11.6355H15V5.757C15 4.593 14.9985 3.7815 14.9145 3.16875C14.8327 2.574 14.6835 2.259 14.4548 2.034C14.2253 1.80975 13.9043 1.6635 13.2968 1.584C12.6713 1.5015 11.8433 1.5 10.6552 1.5H7.34475C6.15675 1.5 5.32875 1.5015 4.70325 1.584ZM5.06925 4.94625C5.06925 4.61025 5.34675 4.338 5.6895 4.338H12.3105C12.4732 4.3366 12.6299 4.39975 12.7461 4.51361C12.8624 4.62748 12.9288 4.78278 12.9307 4.9455C12.929 5.10835 12.8627 5.26384 12.7464 5.37787C12.6301 5.4919 12.4734 5.55515 12.3105 5.55375H5.6895C5.52678 5.55515 5.37013 5.492 5.25387 5.37814C5.13762 5.26427 5.07123 5.10897 5.06925 4.94625ZM5.6895 7.176C5.52678 7.1746 5.37013 7.23775 5.25387 7.35161C5.13762 7.46548 5.07123 7.62078 5.06925 7.7835C5.06925 8.1195 5.34675 8.39175 5.6895 8.39175H9.82725C9.9901 8.39335 10.1469 8.33029 10.2634 8.2164C10.3798 8.10251 10.4463 7.9471 10.4482 7.78425C10.4465 7.62127 10.3801 7.46566 10.2636 7.35161C10.1472 7.23756 9.99023 7.1744 9.82725 7.176H5.6895Z" fill="#EE3238"/>
<path d="M5.60471 12.8511H15C14.9977 13.6986 14.9842 14.3316 14.9152 14.8311C14.8335 15.4258 14.6842 15.7408 14.4555 15.9658C14.226 16.1901 13.905 16.3363 13.2975 16.4158C12.672 16.4983 11.844 16.4998 10.656 16.4998H7.34471C6.15671 16.4998 5.32871 16.4983 4.70321 16.4166C4.09571 16.3363 3.77471 16.1901 3.54521 15.9658C3.31646 15.7408 3.16721 15.4258 3.08546 14.8311C3.05471 14.6061 3.03446 14.3533 3.02246 14.0661C3.12526 13.7851 3.29483 13.5334 3.51655 13.3326C3.73828 13.1318 4.00551 12.9879 4.29521 12.9133C4.51271 12.8563 4.79546 12.8511 5.60471 12.8511Z" fill="#EE3238"/>
</svg>
