<svg width="18" height="22" viewBox="0 0 18 22" fill="none" xmlns="http://www.w3.org/2000/svg">
<path fill-rule="evenodd" clip-rule="evenodd" d="M15 14C15.7956 14 16.5587 14.3161 17.1213 14.8787C17.6839 15.4413 18 16.2044 18 17C18 17.7956 17.6839 18.5587 17.1213 19.1213C16.5587 19.6839 15.7956 20 15 20C14.2044 20 13.4413 19.6839 12.8787 19.1213C12.3161 18.5587 12 17.7956 12 17C12 16.2044 12.3161 15.4413 12.8787 14.8787C13.4413 14.3161 14.2044 14 15 14ZM12.5 2C13.6935 2 14.8381 2.47411 15.682 3.31802C16.5259 4.16193 17 5.30653 17 6.5C17 7.69347 16.5259 8.83807 15.682 9.68198C14.8381 10.5259 13.6935 11 12.5 11H5.5C4.83696 11 4.20107 11.2634 3.73223 11.7322C3.26339 12.2011 3 12.837 3 13.5C3 14.163 3.26339 14.7989 3.73223 15.2678C4.20107 15.7366 4.83696 16 5.5 16H10C10.2652 16 10.5196 16.1054 10.7071 16.2929C10.8946 16.4804 11 16.7348 11 17C11 17.2652 10.8946 17.5196 10.7071 17.7071C10.5196 17.8946 10.2652 18 10 18H5.5C4.30653 18 3.16193 17.5259 2.31802 16.682C1.47411 15.8381 1 14.6935 1 13.5C1 12.3065 1.47411 11.1619 2.31802 10.318C3.16193 9.47411 4.30653 9 5.5 9H12.5C13.163 9 13.7989 8.73661 14.2678 8.26777C14.7366 7.79893 15 7.16304 15 6.5C15 5.83696 14.7366 5.20107 14.2678 4.73223C13.7989 4.26339 13.163 4 12.5 4H8C7.73478 4 7.48043 3.89464 7.29289 3.70711C7.10536 3.51957 7 3.26522 7 3C7 2.73478 7.10536 2.48043 7.29289 2.29289C7.48043 2.10536 7.73478 2 8 2H12.5ZM15 16C14.7348 16 14.4804 16.1054 14.2929 16.2929C14.1054 16.4804 14 16.7348 14 17C14 17.2652 14.1054 17.5196 14.2929 17.7071C14.4804 17.8946 14.7348 18 15 18C15.2652 18 15.5196 17.8946 15.7071 17.7071C15.8946 17.5196 16 17.2652 16 17C16 16.7348 15.8946 16.4804 15.7071 16.2929C15.5196 16.1054 15.2652 16 15 16ZM3 0C3.79565 0 4.55871 0.316071 5.12132 0.87868C5.68393 1.44129 6 2.20435 6 3C6 3.79565 5.68393 4.55871 5.12132 5.12132C4.55871 5.68393 3.79565 6 3 6C2.20435 6 1.44129 5.68393 0.87868 5.12132C0.316071 4.55871 0 3.79565 0 3C0 2.20435 0.316071 1.44129 0.87868 0.87868C1.44129 0.316071 2.20435 0 3 0ZM3 2C2.73478 2 2.48043 2.10536 2.29289 2.29289C2.10536 2.48043 2 2.73478 2 3C2 3.26522 2.10536 3.51957 2.29289 3.70711C2.48043 3.89464 2.73478 4 3 4C3.26522 4 3.51957 3.89464 3.70711 3.70711C3.89464 3.51957 4 3.26522 4 3C4 2.73478 3.89464 2.48043 3.70711 2.29289C3.51957 2.10536 3.26522 2 3 2Z" fill="#E2001A"/>
</svg>
