<svg width="24" height="24" viewBox="0 0 24 24" fill="none" xmlns="http://www.w3.org/2000/svg">
<path d="M5.25 21C6.37717 21 7.45817 20.5522 8.2552 19.7552C9.05223 18.9582 9.5 17.8772 9.5 16.75C9.5 15.6228 9.05223 14.5418 8.2552 13.7448C7.45817 12.9478 6.37717 12.5 5.25 12.5C4.12283 12.5 3.04183 12.9478 2.2448 13.7448C1.44777 14.5418 1 15.6228 1 16.75C1 17.8772 1.44777 18.9582 2.2448 19.7552C3.04183 20.5522 4.12283 21 5.25 21ZM18.5 21C19.0909 21 19.6761 20.8836 20.2221 20.6575C20.768 20.4313 21.2641 20.0998 21.682 19.682C22.0998 19.2641 22.4313 18.768 22.6575 18.2221C22.8836 17.6761 23 17.0909 23 16.5C23 15.9091 22.8836 15.3239 22.6575 14.7779C22.4313 14.232 22.0998 13.7359 21.682 13.318C21.2641 12.9002 20.768 12.5687 20.2221 12.3425C19.6761 12.1164 19.0909 12 18.5 12C17.3065 12 16.1619 12.4741 15.318 13.318C14.4741 14.1619 14 15.3065 14 16.5C14 17.6935 14.4741 18.8381 15.318 19.682C16.1619 20.5259 17.3065 21 18.5 21Z" stroke="#E2001A" stroke-width="1.33333" stroke-linecap="round" stroke-linejoin="round"/>
<path d="M9.49805 3H13.998L18.4995 16.5" stroke="#E2001A" stroke-width="1.33333" stroke-linecap="round" stroke-linejoin="round"/>
<path d="M5.5285 16.5L15.841 8.3815M15.841 7.5H20.077L21 5M4 7.987H7.5M7.5 8L9.1365 13.2105" stroke="#E2001A" stroke-width="1.33333" stroke-linecap="round" stroke-linejoin="round"/>
</svg>
