<svg width="24" height="24" viewBox="0 0 24 24" fill="none" xmlns="http://www.w3.org/2000/svg">
<g clip-path="url(#clip0_705_1147)">
<path d="M21.0765 0.292051C21.0765 0.292051 2.76114 0.286426 2.76677 0.292051C1.08152 0.292051 0.103516 1.16318 0.103516 2.9433V21.2947C0.103516 22.9601 1.03727 23.8604 2.72139 23.8604H21.1504C22.8341 23.8604 23.6453 23.0035 23.6453 21.2947V2.9433C23.6453 1.20668 22.8131 0.292051 21.0765 0.292051ZM10.8746 21.8069C9.18939 21.8069 7.60502 21.1507 6.41364 19.9593C5.82605 19.3748 5.36019 18.6795 5.04298 17.9138C4.72578 17.1481 4.56354 16.3271 4.56564 15.4983C4.56684 14.3794 4.86497 13.2808 5.42958 12.3148C5.9942 11.3487 6.80506 10.5498 7.77939 9.99968L8.32464 10.9664C7.52167 11.42 6.8534 12.0784 6.38803 12.8746C5.92265 13.6707 5.67683 14.5761 5.67564 15.4983C5.6739 16.1813 5.80756 16.8578 6.06888 17.4888C6.33021 18.1198 6.71403 18.6927 7.19814 19.1744C7.67977 19.6588 8.25272 20.0428 8.8838 20.3042C9.51488 20.5657 10.1916 20.6992 10.8746 20.6973C12.0429 20.7008 13.1781 20.3094 14.0958 19.5865C15.0136 18.8636 15.6601 17.8518 15.9304 16.7152L17.0096 16.9739C16.6818 18.3533 15.8973 19.5815 14.7836 20.4588C13.6698 21.3362 12.2921 21.8113 10.8743 21.8069H10.8746ZM19.4261 19.4816L18.9649 19.666L18.7305 19.2723L15.696 13.6439H9.00977L8.95577 13.1043L7.98377 4.12193L7.99652 4.10955C7.90302 3.85886 7.86763 3.59023 7.893 3.32388C7.91837 3.05753 8.00384 2.80041 8.14298 2.57188C8.28212 2.34335 8.4713 2.14937 8.69627 2.00455C8.92124 1.85973 9.17614 1.76784 9.44177 1.7358C9.67189 1.70825 9.90519 1.72629 10.1283 1.7889C10.3515 1.85151 10.5601 1.95746 10.7423 2.1007C10.9245 2.24394 11.0767 2.42167 11.1903 2.62373C11.3038 2.82579 11.3764 3.04824 11.404 3.27836C11.4315 3.50849 11.4135 3.74179 11.3509 3.96494C11.2882 4.18809 11.1823 4.39673 11.0391 4.57893C10.8958 4.76114 10.7181 4.91335 10.516 5.02687C10.314 5.14039 10.0915 5.213 9.86139 5.24055C9.64656 5.26569 9.42893 5.25107 9.21939 5.19743L9.70577 9.41768L14.7623 9.41955V10.5299L9.82652 10.5716L10.0065 12.5336H16.3616L16.5188 12.7829L19.4756 18.2887L20.6333 17.8147L21.0454 18.8396L19.4265 19.4819L19.4261 19.4816Z" fill="#E2001A"/>
</g>
<defs>
<clipPath id="clip0_705_1147">
<rect width="24" height="24" fill="white"/>
</clipPath>
</defs>
</svg>
