<svg width="13" height="15" viewBox="0 0 13 15" fill="none" xmlns="http://www.w3.org/2000/svg">
<path d="M12.7833 2.76227L6.64444 0.0322664C6.59926 0.0110173 6.54994 0 6.5 0C6.45006 0 6.40074 0.0110173 6.35556 0.0322664L0.216667 2.76227C0.15319 2.78996 0.0990144 2.83532 0.0605989 2.89294C0.0221834 2.95057 0.0011479 3.01802 0 3.08727V5.02282C0 8.57616 2.12333 12.8806 6.37 14.3684C6.4543 14.397 6.5457 14.397 6.63 14.3684C10.8767 12.8806 13 8.57616 13 5.02282V3.08727C12.9989 3.01802 12.9778 2.95057 12.9394 2.89294C12.901 2.83532 12.8468 2.78996 12.7833 2.76227ZM9.88578 5.15282L6.07244 10.0076C6.01702 10.0776 5.94747 10.1351 5.86832 10.1764C5.78918 10.2177 5.70222 10.2419 5.61311 10.2474L5.57556 10.2488C5.40764 10.2485 5.24666 10.1818 5.12778 10.0632L3.16333 8.09877C3.04486 7.98001 2.97842 7.81905 2.97862 7.65131C2.97883 7.48356 3.04566 7.32276 3.16442 7.20429C3.28317 7.08582 3.44413 7.01938 3.61188 7.01958C3.77962 7.01979 3.94042 7.08662 4.05889 7.20538L5.51922 8.66571L8.892 4.3721C8.99744 4.24574 9.14797 4.16544 9.31164 4.14824C9.47532 4.13104 9.63925 4.1783 9.76865 4.27998C9.89806 4.38166 9.98275 4.52976 10.0047 4.69286C10.0268 4.85596 9.98433 5.02121 9.8865 5.15354L9.88578 5.15282Z" fill="#EE3238"/>
</svg>
