<svg width="24" height="24" viewBox="0 0 24 24" fill="none" xmlns="http://www.w3.org/2000/svg">
<path fill-rule="evenodd" clip-rule="evenodd" d="M16.2204 11.4221C16.4547 11.6565 16.5863 11.9744 16.5863 12.3059C16.5863 12.6373 16.4547 12.9552 16.2204 13.1896L9.14911 20.2609C9.0338 20.3803 8.89587 20.4755 8.74337 20.541C8.59086 20.6065 8.42684 20.641 8.26086 20.6425C8.09489 20.6439 7.93029 20.6123 7.77667 20.5494C7.62305 20.4866 7.48348 20.3937 7.36612 20.2764C7.24875 20.159 7.15593 20.0195 7.09308 19.8658C7.03023 19.7122 6.9986 19.5476 7.00005 19.3816C7.00149 19.2157 7.03597 19.0516 7.10148 18.8991C7.16699 18.7466 7.26222 18.6087 7.38161 18.4934L13.5691 12.3059L7.38161 6.11839C7.15391 5.88264 7.02792 5.56688 7.03077 5.23914C7.03362 4.91139 7.16508 4.59788 7.39684 4.36612C7.6286 4.13436 7.94211 4.0029 8.26986 4.00005C8.5976 3.9972 8.91336 4.12319 9.14911 4.35089L16.2204 11.4221Z" fill="#6C6D70"/>
</svg>
