<svg width="41" height="50" viewBox="0 0 41 50" fill="none" xmlns="http://www.w3.org/2000/svg">
<path d="M10.001 20.6665V7.99985C10.001 6.82207 10.3068 5.88296 10.9183 5.18251C11.5299 4.48207 12.3352 3.94874 13.3343 3.58251C14.3334 3.21629 15.4725 2.97185 16.7516 2.84918C18.0308 2.72651 19.3361 2.66562 20.6676 2.66651C22.1343 2.66651 23.5179 2.72785 24.8183 2.85051C26.1188 2.97318 27.2521 3.21762 28.2183 3.58385C29.1845 3.95007 29.9454 4.4834 30.501 5.18385C31.0565 5.88429 31.3343 6.82296 31.3343 7.99985V20.6665C31.3343 21.9776 30.8845 23.0834 29.985 23.9838C29.0854 24.8843 27.9796 25.3341 26.6676 25.3332L27.3343 25.9998C27.7121 26.3776 27.801 26.8056 27.601 27.2838C27.401 27.7621 27.0343 28.0007 26.501 27.9998C26.3454 27.9998 26.1956 27.9723 26.0516 27.9172C25.9076 27.8621 25.7796 27.7785 25.6676 27.6665L23.3343 25.3332H18.001L15.6676 27.6665C15.5565 27.7776 15.4285 27.8612 15.2836 27.9172C15.1388 27.9732 14.9894 28.0007 14.8356 27.9998C14.3245 27.9998 13.9636 27.7612 13.753 27.2838C13.5423 26.8065 13.625 26.3785 14.001 25.9998L14.6676 25.3332C13.3565 25.3332 12.2508 24.8834 11.3503 23.9838C10.4499 23.0843 10.0001 21.9785 10.001 20.6665ZM12.6676 13.3332H19.3343V9.33318H12.6676V13.3332ZM22.001 13.3332H28.6676V9.33318H22.001V13.3332ZM16.001 21.3332C16.5788 21.3332 17.0565 21.1443 17.4343 20.7665C17.8121 20.3887 18.001 19.911 18.001 19.3332C18.001 18.7554 17.8121 18.2776 17.4343 17.8998C17.0565 17.5221 16.5788 17.3332 16.001 17.3332C15.4232 17.3332 14.9454 17.5221 14.5676 17.8998C14.1899 18.2776 14.001 18.7554 14.001 19.3332C14.001 19.911 14.1899 20.3887 14.5676 20.7665C14.9454 21.1443 15.4232 21.3332 16.001 21.3332ZM25.3343 21.3332C25.9121 21.3332 26.3899 21.1443 26.7676 20.7665C27.1454 20.3887 27.3343 19.911 27.3343 19.3332C27.3343 18.7554 27.1454 18.2776 26.7676 17.8998C26.3899 17.5221 25.9121 17.3332 25.3343 17.3332C24.7565 17.3332 24.2788 17.5221 23.901 17.8998C23.5232 18.2776 23.3343 18.7554 23.3343 19.3332C23.3343 19.911 23.5232 20.3887 23.901 20.7665C24.2788 21.1443 24.7565 21.3332 25.3343 21.3332Z" fill="#727A94"/>
<path d="M4.05112 46V37.624H5.25112V44.944H8.75512V46H4.05112ZM10.0991 46V39.88H11.2271V46H10.0991ZM11.2991 37.24V38.512H10.0271V37.24H11.2991ZM13.295 46V39.88H14.387V40.852H14.411C14.747 40.156 15.563 39.736 16.415 39.736C17.999 39.736 18.707 40.72 18.707 42.364V46H17.579V42.832C17.579 41.404 17.267 40.708 16.283 40.648C14.999 40.648 14.423 41.68 14.423 43.168V46H13.295ZM20.6309 46V37H21.7589V40.756H21.7829C22.1909 40.108 22.8989 39.736 23.7509 39.736C25.3349 39.736 26.0429 40.72 26.0429 42.364V46H24.9149V42.832C24.9149 41.404 24.6029 40.708 23.6189 40.648C22.3349 40.648 21.7589 41.68 21.7589 43.168V46H20.6309ZM28.3148 41.272L28.2548 40.312C28.8188 39.976 29.4908 39.736 30.2708 39.736C32.0228 39.736 32.7308 40.6 32.7308 42.268V44.8C32.7308 45.496 32.7548 45.82 32.7788 46H31.7228V45.208H31.6988C31.4348 45.58 30.8348 46.144 29.8028 46.144C28.4828 46.144 27.5588 45.568 27.5588 44.236C27.5588 42.7 29.2388 42.22 30.4028 42.22C30.8468 42.22 31.1588 42.22 31.6028 42.244C31.6028 41.188 31.2188 40.648 30.0908 40.648C29.4548 40.648 28.7708 40.888 28.3148 41.272ZM31.6028 43.624V43.084C31.3628 43.084 31.1228 43.06 30.8828 43.06C30.2708 43.06 28.7588 43.156 28.7588 44.236C28.7588 44.884 29.3828 45.232 29.8988 45.232C31.0148 45.232 31.6028 44.536 31.6028 43.624ZM34.1188 45.808L34.1788 44.8C34.6228 45.088 35.2588 45.232 35.5828 45.232C36.0988 45.232 36.7348 45.016 36.7348 44.356C36.7348 43.24 34.0828 43.336 34.0828 41.62C34.0828 40.348 35.0308 39.736 36.2428 39.736C36.7708 39.736 37.2028 39.844 37.6468 39.976L37.5508 40.96C37.2988 40.804 36.6268 40.648 36.3628 40.648C35.7868 40.648 35.2828 40.888 35.2828 41.392C35.2828 42.64 37.9348 42.28 37.9348 44.236C37.9348 45.544 36.8908 46.144 35.7988 46.144C35.2228 46.144 34.6348 46.084 34.1188 45.808Z" fill="#727A94"/>
</svg>
