<svg width="37" height="50" viewBox="0 0 37 50" fill="none" xmlns="http://www.w3.org/2000/svg">
<path d="M7.83334 24C7.45556 24 7.13912 23.872 6.884 23.616C6.62889 23.36 6.50089 23.0436 6.5 22.6667C6.49912 22.2898 6.62712 21.9733 6.884 21.7173C7.14089 21.4613 7.45734 21.3333 7.83334 21.3333H29.1667C29.5445 21.3333 29.8613 21.4613 30.1173 21.7173C30.3733 21.9733 30.5009 22.2898 30.5 22.6667C30.4991 23.0436 30.3711 23.3604 30.116 23.6173C29.8609 23.8742 29.5445 24.0018 29.1667 24H7.83334ZM7.83334 17.3333C7.45556 17.3333 7.13912 17.2053 6.884 16.9493C6.62889 16.6933 6.50089 16.3769 6.5 16C6.49912 15.6231 6.62712 15.3067 6.884 15.0507C7.14089 14.7947 7.45734 14.6667 7.83334 14.6667H29.1667C29.5445 14.6667 29.8613 14.7947 30.1173 15.0507C30.3733 15.3067 30.5009 15.6231 30.5 16C30.4991 16.3769 30.3711 16.6938 30.116 16.9507C29.8609 17.2076 29.5445 17.3351 29.1667 17.3333H7.83334ZM7.83334 10.6667C7.45556 10.6667 7.13912 10.5387 6.884 10.2827C6.62889 10.0267 6.50089 9.71022 6.5 9.33333C6.49912 8.95644 6.62712 8.64 6.884 8.384C7.14089 8.128 7.45734 8 7.83334 8H29.1667C29.5445 8 29.8613 8.128 30.1173 8.384C30.3733 8.64 30.5009 8.95644 30.5 9.33333C30.4991 9.71022 30.3711 10.0271 30.116 10.284C29.8609 10.5409 29.5445 10.6684 29.1667 10.6667H7.83334Z" fill="#E2001A"/>
<path d="M3.24406 46V37.624H5.22406L7.85206 44.584L10.4321 37.624H12.4121V46H11.2121V38.752H11.1881L8.41606 46H7.24006L4.46806 38.752H4.44406V46H3.24406ZM19.1481 44.62V45.748C18.7161 45.904 18.2241 46.144 17.2161 46.144C15.0441 46.144 14.0481 44.824 14.0481 42.832C14.0481 41.02 15.1881 39.736 16.9161 39.736C18.9561 39.736 19.6161 41.224 19.6161 43.192H15.2481C15.2481 44.404 16.1961 45.232 17.2641 45.232C18.0081 45.232 18.8721 44.848 19.1481 44.62ZM15.2481 42.352H18.4161C18.4161 41.416 17.8641 40.648 16.8921 40.648C15.7881 40.648 15.3321 41.56 15.2481 42.352ZM21.1241 46V39.88H22.2161V40.852H22.2401C22.5761 40.156 23.3921 39.736 24.2441 39.736C25.8281 39.736 26.5361 40.72 26.5361 42.364V46H25.4081V42.832C25.4081 41.404 25.0961 40.708 24.1121 40.648C22.8281 40.648 22.2521 41.68 22.2521 43.168V46H21.1241ZM33.872 39.88V46H32.78V45.028H32.756C32.42 45.724 31.604 46.144 30.752 46.144C29.168 46.144 28.46 45.16 28.46 43.516V39.88H29.588V43.048C29.588 44.476 29.9 45.172 30.884 45.232C32.168 45.232 32.744 44.2 32.744 42.712V39.88H33.872Z" fill="#E2001A"/>
</svg>
