<svg width="20" height="20" viewBox="0 0 20 20" fill="none" xmlns="http://www.w3.org/2000/svg">
<path fill-rule="evenodd" clip-rule="evenodd" d="M11 0C11.2449 3.23106e-05 11.4813 0.089956 11.6644 0.252715C11.8474 0.415474 11.9643 0.639749 11.993 0.883L12 1C12.0003 1.25488 12.0979 1.50003 12.2728 1.68537C12.4478 1.8707 12.687 1.98223 12.9414 1.99717C13.1958 2.01211 13.4464 1.92933 13.6418 1.76574C13.8373 1.60214 13.9629 1.3701 13.993 1.117L14 1C14 0.734784 14.1054 0.48043 14.2929 0.292893C14.4804 0.105357 14.7348 0 15 0H17C17.7956 0 18.5587 0.316071 19.1213 0.87868C19.6839 1.44129 20 2.20435 20 3V13C20 13.7956 19.6839 14.5587 19.1213 15.1213C18.5587 15.6839 17.7956 16 17 16H15C14.7551 16 14.5187 15.91 14.3356 15.7473C14.1526 15.5845 14.0357 15.3603 14.007 15.117L14 15C13.9997 14.7451 13.9021 14.5 13.7272 14.3146C13.5522 14.1293 13.313 14.0178 13.0586 14.0028C12.8042 13.9879 12.5536 14.0707 12.3582 14.2343C12.1627 14.3979 12.0371 14.6299 12.007 14.883L12 15C12 15.2652 11.8946 15.5196 11.7071 15.7071C11.5196 15.8946 11.2652 16 11 16H3C2.20435 16 1.44129 15.6839 0.87868 15.1213C0.316071 14.5587 0 13.7956 0 13V3C0 2.20435 0.316071 1.44129 0.87868 0.87868C1.44129 0.316071 2.20435 0 3 0H11ZM13 9C12.7348 9 12.4804 9.10536 12.2929 9.29289C12.1054 9.48043 12 9.73478 12 10V11C12 11.2652 12.1054 11.5196 12.2929 11.7071C12.4804 11.8946 12.7348 12 13 12C13.2652 12 13.5196 11.8946 13.7071 11.7071C13.8946 11.5196 14 11.2652 14 11V10C14 9.73478 13.8946 9.48043 13.7071 9.29289C13.5196 9.10536 13.2652 9 13 9ZM13 4C12.7551 4.00003 12.5187 4.08996 12.3356 4.25272C12.1526 4.41547 12.0357 4.63975 12.007 4.883L12 5V6C12.0003 6.25488 12.0979 6.50003 12.2728 6.68537C12.4478 6.8707 12.687 6.98224 12.9414 6.99717C13.1958 7.01211 13.4464 6.92933 13.6418 6.76574C13.8373 6.60215 13.9629 6.3701 13.993 6.117L14 6V5C14 4.73478 13.8946 4.48043 13.7071 4.29289C13.5196 4.10536 13.2652 4 13 4Z" fill="#E2001A"/>
</svg>
