<svg width="36" height="50" viewBox="0 0 36 50" fill="none" xmlns="http://www.w3.org/2000/svg">
<path d="M22.499 15.9998C25.8324 15.9998 28.499 18.6665 28.499 21.9998C28.499 23.1732 28.1657 24.2798 27.579 25.1998L31.6857 29.3332L29.8324 31.1865L25.6724 27.0932C24.7524 27.6665 23.659 27.9998 22.499 27.9998C19.1657 27.9998 16.499 25.3332 16.499 21.9998C16.499 18.6665 19.1657 15.9998 22.499 15.9998ZM22.499 18.6665C21.615 18.6665 20.7671 19.0177 20.142 19.6428C19.5169 20.2679 19.1657 21.1158 19.1657 21.9998C19.1657 22.8839 19.5169 23.7317 20.142 24.3569C20.7671 24.982 21.615 25.3332 22.499 25.3332C23.3831 25.3332 24.2309 24.982 24.856 24.3569C25.4812 23.7317 25.8324 22.8839 25.8324 21.9998C25.8324 21.1158 25.4812 20.2679 24.856 19.6428C24.2309 19.0177 23.3831 18.6665 22.499 18.6665ZM20.499 8.1465L12.499 5.33317V21.1865L13.8324 21.6532V21.9998C13.8324 22.8532 13.9524 23.6798 14.179 24.4532L12.499 23.8665L5.37902 26.6265L5.16569 26.6665C4.98888 26.6665 4.81931 26.5963 4.69429 26.4712C4.56926 26.3462 4.49902 26.1766 4.49902 25.9998V5.83984C4.49902 5.53317 4.69902 5.29317 4.97902 5.19984L12.499 2.6665L20.499 5.4665L27.619 2.6665H27.8324C28.0092 2.6665 28.1787 2.73674 28.3038 2.86177C28.4288 2.98679 28.499 3.15636 28.499 3.33317V15.7465C26.8869 14.1957 24.736 13.3305 22.499 13.3332C21.8324 13.3332 21.1657 13.4132 20.499 13.5598V8.1465Z" fill="#727A94"/>
<path d="M3.49502 46V37.624H5.54702C7.20302 37.624 8.79902 37.888 8.79902 39.892C8.79902 40.912 8.04302 41.632 7.07102 41.8V41.824C7.44302 41.968 7.62302 42.148 7.88702 42.664L9.47102 46H8.10302L6.81902 43.096C6.44702 42.28 6.05102 42.28 5.41502 42.28H4.69502V46H3.49502ZM4.69502 38.68V41.224H5.71502C6.85502 41.224 7.52702 40.72 7.52702 39.916C7.52702 39.16 6.95102 38.68 5.84702 38.68H4.69502ZM10.387 42.94C10.387 41.08 11.635 39.736 13.507 39.736C15.367 39.736 16.615 41.08 16.615 42.94C16.615 44.692 15.343 46.144 13.507 46.144C11.659 46.144 10.387 44.692 10.387 42.94ZM11.587 42.94C11.587 44.032 12.175 45.232 13.507 45.232C14.827 45.232 15.415 44.032 15.415 42.94C15.415 41.776 14.707 40.648 13.507 40.648C12.295 40.648 11.587 41.776 11.587 42.94ZM21.3829 39.88V40.792H19.7629V44.14C19.7629 44.848 20.1949 45.232 20.7109 45.232C21.0589 45.232 21.3109 45.124 21.4789 45.016V45.976C21.2269 46.048 20.8789 46.144 20.5189 46.144C19.3549 46.144 18.6349 45.592 18.6349 44.368V40.792H17.2549V39.88H18.6349V38.464L19.7629 38.104V39.88H21.3829ZM23.143 41.272L23.083 40.312C23.647 39.976 24.319 39.736 25.099 39.736C26.851 39.736 27.559 40.6 27.559 42.268V44.8C27.559 45.496 27.583 45.82 27.607 46H26.551V45.208H26.527C26.263 45.58 25.663 46.144 24.631 46.144C23.311 46.144 22.387 45.568 22.387 44.236C22.387 42.7 24.067 42.22 25.231 42.22C25.675 42.22 25.987 42.22 26.431 42.244C26.431 41.188 26.047 40.648 24.919 40.648C24.283 40.648 23.599 40.888 23.143 41.272ZM26.431 43.624V43.084C26.191 43.084 25.951 43.06 25.711 43.06C25.099 43.06 23.587 43.156 23.587 44.236C23.587 44.884 24.211 45.232 24.727 45.232C25.843 45.232 26.431 44.536 26.431 43.624ZM28.9469 45.808L29.0069 44.8C29.4509 45.088 30.0869 45.232 30.4109 45.232C30.9269 45.232 31.5629 45.016 31.5629 44.356C31.5629 43.24 28.9109 43.336 28.9109 41.62C28.9109 40.348 29.8589 39.736 31.0709 39.736C31.5989 39.736 32.0309 39.844 32.4749 39.976L32.3789 40.96C32.1269 40.804 31.4549 40.648 31.1909 40.648C30.6149 40.648 30.1109 40.888 30.1109 41.392C30.1109 42.64 32.7629 42.28 32.7629 44.236C32.7629 45.544 31.7189 46.144 30.6269 46.144C30.0509 46.144 29.4629 46.084 28.9469 45.808Z" fill="#727A94"/>
</svg>
